<svg xmlns="http://www.w3.org/2000/svg" viewBox="0 0 179 89"><path d="M0,0H14V14L10.5,27H12a29.7,29.7,0,0,1,2.2-6.5,17.09,17.09,0,0,1,3.25-4.45A6.86,6.86,0,0,1,22.5,14a7.79,7.79,0,0,1,4.3,1.45,13,13,0,0,1,4,4.75,33.69,33.69,0,0,1,3,8.75A64.34,64.34,0,0,1,35,42.5a64.34,64.34,0,0,1-1.2,13.55,33.69,33.69,0,0,1-3,8.75,13,13,0,0,1-4,4.75A7.79,7.79,0,0,1,22.5,71a7,7,0,0,1-5.05-2,15.66,15.66,0,0,1-3.25-4.5A27.52,27.52,0,0,1,12,58H11L9.5,70H0ZM17,60a1.54,1.54,0,0,0,1.1-.5,5.38,5.38,0,0,0,.95-2.25,32.34,32.34,0,0,0,.7-5.25q.26-3.49.25-9.5T19.75,33a32.34,32.34,0,0,0-.7-5.25,5.38,5.38,0,0,0-.95-2.25,1.46,1.46,0,0,0-2.2,0,5.38,5.38,0,0,0-1,2.25,32.34,32.34,0,0,0-.7,5.25Q14,36.49,14,42.5t.25,9.5a32.34,32.34,0,0,0,.7,5.25,5.38,5.38,0,0,0,1,2.25A1.54,1.54,0,0,0,17,60ZM41.5,15h14V56A4.39,4.39,0,0,0,56,58.35,1.29,1.29,0,0,0,57,59a1.76,1.76,0,0,0,1.4-.75,9.53,9.53,0,0,0,1.1-1.75c.33-.73.67-1.57,1-2.5V15h14V64a9.33,9.33,0,0,0,.35,2.9,3.9,3.9,0,0,0,.85,1.5A2.19,2.19,0,0,0,77,69v1H60V69l3.5-11H62a39.46,39.46,0,0,1-3.5,6.5A21.54,21.54,0,0,1,54.4,69,8.23,8.23,0,0,1,49,71a6.6,6.6,0,0,1-5.25-2.8c-1.5-1.87-2.25-4.93-2.25-9.2ZM82,0H96V70H82Zm41.5,69L127,58h-1.5a31,31,0,0,1-2.3,6.5A16.28,16.28,0,0,1,120,69a6.81,6.81,0,0,1-5,2,7.77,7.77,0,0,1-4.3-1.45,13,13,0,0,1-4-4.75,33.69,33.69,0,0,1-3-8.75,64.34,64.34,0,0,1-1.2-13.55A64.34,64.34,0,0,1,103.7,29a33.69,33.69,0,0,1,3-8.75,13,13,0,0,1,4-4.75A7.77,7.77,0,0,1,115,14a6.7,6.7,0,0,1,5,2.05,17.84,17.84,0,0,1,3.2,4.45,33.91,33.91,0,0,1,2.3,6.5H127l-3.5-13V0h14V64a9,9,0,0,0,.35,2.9,3.77,3.77,0,0,0,.85,1.5,2.17,2.17,0,0,0,1.3.6v1H123.5Zm-3-9a1.55,1.55,0,0,0,1.1-.5,5.38,5.38,0,0,0,1-2.25,32.34,32.34,0,0,0,.7-5.25c.16-2.33.25-5.5.25-9.5s-.09-7.17-.25-9.5a32.34,32.34,0,0,0-.7-5.25,5.38,5.38,0,0,0-1-2.25,1.55,1.55,0,0,0-1.1-.5,1.54,1.54,0,0,0-1.1.5,5.25,5.25,0,0,0-1,2.25,31.25,31.25,0,0,0-.7,5.25q-.25,3.49-.25,9.5t.25,9.5a31.25,31.25,0,0,0,.7,5.25,5.25,5.25,0,0,0,1,2.25A1.54,1.54,0,0,0,120.5,60ZM152,70a4.75,4.75,0,0,0-.3,1,8.36,8.36,0,0,0-.15,1.1c0,.4-.05.87-.05,1.4a5.08,5.08,0,0,0,.95,3.4A3.09,3.09,0,0,0,154.9,78a4.78,4.78,0,0,0,1.7-.35,4.5,4.5,0,0,0,1.7-1.25A8.14,8.14,0,0,0,159.7,74a14.65,14.65,0,0,0,.8-4H150l-7.5-55h15L161,57h1.5L164,15h15l-4.5,50q-1.11,12.7-6.2,18.35A17.07,17.07,0,0,1,155,89q-7.5,0-11.5-3.65a12.07,12.07,0,0,1-4-9.35,14.09,14.09,0,0,1,.2-2.6,10.82,10.82,0,0,1,.5-1.9A9.32,9.32,0,0,1,141,70Z" fill="#c9787c"/></svg>